<svg width="618" height="579" viewBox="0 0 618 579" fill="none" xmlns="http://www.w3.org/2000/svg">
<mask id="mask0_20_1038" style="mask-type:alpha" maskUnits="userSpaceOnUse" x="37" y="0" width="581" height="579">
<mask id="path-1-outside-1_20_1038" maskUnits="userSpaceOnUse" x="36.7568" y="-0.731445" width="582" height="580" fill="black">
<rect fill="white" x="36.7568" y="-0.731445" width="582" height="580"/>
<path d="M327.798 144.483L346.032 0.268555L345.89 145.621L382.073 4.82418L363.839 149.038L417.403 13.7931L381.219 154.733L451.307 27.1752L397.601 162.42L483.217 44.6859L412.986 172.243L512.563 66.1827L427.09 183.775L539.203 91.0963L439.483 197.015L562.423 119.142L450.167 211.82L581.939 149.892L459 227.765L597.467 182.778L465.695 244.706L608.721 217.372L470.254 262.359L615.559 253.106L472.533 280.297L617.838 289.408L472.533 298.52L615.559 325.711L470.254 316.6L608.721 361.444L465.695 334.253L597.467 396.181L459 351.194L581.939 429.067L450.167 367.139L562.423 459.817L439.483 381.802L539.203 487.863L427.09 395.042L512.563 512.776L412.986 406.716L483.217 534.131L397.601 416.396L451.307 551.641L381.219 424.226L417.403 565.023L363.839 429.778L382.073 574.135L345.89 433.195L346.032 578.69L327.798 434.334L309.563 578.69L309.563 433.195L273.379 574.135L291.756 429.778L238.193 565.023L274.377 424.226L204.288 551.641L257.994 416.396L172.378 534.131L242.609 406.716L142.889 512.776L228.506 395.042L116.393 487.863L216.112 381.802L93.1723 459.817L205.428 367.139L73.6558 429.067L196.595 351.194L58.1281 396.181L189.9 334.253L46.874 361.444L185.341 316.6L40.0361 325.711L183.062 298.52L37.7568 289.408L183.062 280.297L40.0361 253.106L185.341 262.359L46.874 217.372L189.9 244.706L58.1281 182.778L196.595 227.765L73.6558 149.892L205.428 211.82L93.1723 119.142L216.112 197.015L116.393 91.0963L228.506 183.775L142.889 66.1827L242.609 172.243L172.378 44.6859L257.994 162.42L204.288 27.1752L274.377 154.733L238.193 13.7931L291.756 149.038L273.379 4.82418L309.563 145.621V0.268555L327.798 144.483Z"/>
</mask>
<path d="M327.798 144.483L346.032 0.268555L345.89 145.621L382.073 4.82418L363.839 149.038L417.403 13.7931L381.219 154.733L451.307 27.1752L397.601 162.42L483.217 44.6859L412.986 172.243L512.563 66.1827L427.09 183.775L539.203 91.0963L439.483 197.015L562.423 119.142L450.167 211.82L581.939 149.892L459 227.765L597.467 182.778L465.695 244.706L608.721 217.372L470.254 262.359L615.559 253.106L472.533 280.297L617.838 289.408L472.533 298.52L615.559 325.711L470.254 316.6L608.721 361.444L465.695 334.253L597.467 396.181L459 351.194L581.939 429.067L450.167 367.139L562.423 459.817L439.483 381.802L539.203 487.863L427.09 395.042L512.563 512.776L412.986 406.716L483.217 534.131L397.601 416.396L451.307 551.641L381.219 424.226L417.403 565.023L363.839 429.778L382.073 574.135L345.89 433.195L346.032 578.69L327.798 434.334L309.563 578.69L309.563 433.195L273.379 574.135L291.756 429.778L238.193 565.023L274.377 424.226L204.288 551.641L257.994 416.396L172.378 534.131L242.609 406.716L142.889 512.776L228.506 395.042L116.393 487.863L216.112 381.802L93.1723 459.817L205.428 367.139L73.6558 429.067L196.595 351.194L58.1281 396.181L189.9 334.253L46.874 361.444L185.341 316.6L40.0361 325.711L183.062 298.52L37.7568 289.408L183.062 280.297L40.0361 253.106L185.341 262.359L46.874 217.372L189.9 244.706L58.1281 182.778L196.595 227.765L73.6558 149.892L205.428 211.82L93.1723 119.142L216.112 197.015L116.393 91.0963L228.506 183.775L142.889 66.1827L242.609 172.243L172.378 44.6859L257.994 162.42L204.288 27.1752L274.377 154.733L238.193 13.7931L291.756 149.038L273.379 4.82418L309.563 145.621V0.268555L327.798 144.483Z" stroke="black" stroke-width="1.78525" stroke-miterlimit="10" mask="url(#path-1-outside-1_20_1038)"/>
</mask>
<g mask="url(#mask0_20_1038)">
<rect x="-700.83" y="-33.7559" width="1029.04" height="627.384" rx="40.1682" fill="white"/>
</g>
<path d="M85.9626 419.888L126.762 442.118L85.9626 464.526L63.6436 505.236L41.3245 464.526L0.525358 442.118L41.3245 419.888L63.6436 379L85.9626 419.888Z" fill="#B9FF66"/>
<path d="M194.316 217.681L267.222 257.404L194.316 297.446L154.434 370.192L114.551 297.446L41.6455 257.404L114.551 217.681L154.434 144.616L194.316 217.681Z" fill="#191A23"/>
</svg>
